<svg xmlns="http://www.w3.org/2000/svg" xmlns:xlink="http://www.w3.org/1999/xlink" width="294.489" height="120.488" viewBox="0 0 294.489 120.488">
  <defs>
    <linearGradient id="linear-gradient" x1="0.5" y1="-0.05" x2="0.5" y2="1.037" gradientUnits="objectBoundingBox">
      <stop offset="0" stop-color="#d39d5b"/>
      <stop offset="1" stop-color="#ad7a51"/>
    </linearGradient>
    <linearGradient id="linear-gradient-2" x1="0.5" y1="-0.091" x2="0.5" y2="1.039" xlink:href="#linear-gradient"/>
    <linearGradient id="linear-gradient-3" x1="0.5" y1="-0.404" x2="0.5" y2="1.077" xlink:href="#linear-gradient"/>
    <linearGradient id="linear-gradient-4" x1="0.5" y1="-0.394" x2="0.5" y2="1.049" xlink:href="#linear-gradient"/>
    <linearGradient id="linear-gradient-5" x1="0.5" y1="0.051" x2="0.5" y2="1.052" xlink:href="#linear-gradient"/>
    <linearGradient id="linear-gradient-6" x1="0.5" y1="0.175" x2="0.5" y2="5.947" xlink:href="#linear-gradient"/>
    <linearGradient id="linear-gradient-7" x1="0.5" y1="-0.412" x2="0.5" y2="1.077" xlink:href="#linear-gradient"/>
    <linearGradient id="linear-gradient-8" x1="0.5" y1="-0.28" x2="0.5" y2="0.798" xlink:href="#linear-gradient"/>
  </defs>
  <g id="DUT_Logo" data-name="DUT Logo" transform="translate(-1513 -488.039)">
    <path id="Path_51" data-name="Path 51" d="M1557.919,507.247q-2.061,0-4.532-.082t-4.039-.165v1.648a11.712,11.712,0,0,1,4.7,1.031,4.744,4.744,0,0,1,2.308,2.761,17.377,17.377,0,0,1,.659,5.441v24.4a40.593,40.593,0,0,1-1.359,11,14.7,14.7,0,0,1-4.7,7.582q-3.337,2.763-9.436,2.763a13.073,13.073,0,0,1-6.553-1.443,9.271,9.271,0,0,1-3.791-4.038,19.41,19.41,0,0,1-1.731-6.14,61.212,61.212,0,0,1-.453-7.748V515.737a14.918,14.918,0,0,1,.5-4.493,3.09,3.09,0,0,1,1.936-1.979,14.138,14.138,0,0,1,4.245-.618V507q-1.977.082-5.068.165t-6.224.082q-3.461,0-6.47-.082T1513,507v1.648a13.7,13.7,0,0,1,4.2.618,2.978,2.978,0,0,1,1.854,1.979,16.264,16.264,0,0,1,.453,4.493v25.879a72.817,72.817,0,0,0,.494,9.273,18.788,18.788,0,0,0,1.9,6.388,17.8,17.8,0,0,0,3.875,4.863,14.675,14.675,0,0,0,6.511,3.461,32.181,32.181,0,0,0,7.665.907,20.212,20.212,0,0,0,9.52-2.1,14.915,14.915,0,0,0,6.058-5.564,21.209,21.209,0,0,0,2.638-7.5,60.106,60.106,0,0,0,.742-9.973v-23.82a21.423,21.423,0,0,1,.494-5.234,4.185,4.185,0,0,1,1.9-2.678,9.437,9.437,0,0,1,4.122-.99V507q-1.32.082-3.338.165T1557.919,507.247Z" transform="translate(0 3.023)" fill="url(#linear-gradient)"/>
    <path id="Path_52" data-name="Path 52" d="M1585.087,561.092a5.226,5.226,0,0,1-3.832,1.731,4.467,4.467,0,0,1-3.543-1.4q-1.238-1.4-1.237-4.78V524.25h11.375V522.6h-11.375V508.919a17.467,17.467,0,0,1-4.12,1.2,36.041,36.041,0,0,1-4.78.453V522.6h-7.584v1.649h7.584v27.694a29.869,29.869,0,0,0,.659,7.005,9.9,9.9,0,0,0,2.472,4.534,9.6,9.6,0,0,0,3.3,2.018,13.668,13.668,0,0,0,4.7.7q4.863,0,7.377-3.009a17.216,17.216,0,0,0,3.5-7.376l-1.566-.577A14.4,14.4,0,0,1,1585.087,561.092Z" transform="translate(7.49 3.328)" fill="url(#linear-gradient-2)"/>
    <path id="Path_53" data-name="Path 53" d="M1617.481,520.643a7.942,7.942,0,0,0-4.08-.989,9.462,9.462,0,0,0-5.111,1.441,14.385,14.385,0,0,0-3.956,3.668,21.7,21.7,0,0,0-2.638,4.616V519.9a29.62,29.62,0,0,1-4.492.866,44.506,44.506,0,0,1-5.233.288q-2.473,0-5.111-.247v1.731q3.463,0,4.7,1.772a9.677,9.677,0,0,1,1.237,5.482v25.879q0,3.463-1.36,4.7t-4.575,1.237v1.73q1.565-.082,4.534-.206t5.934-.123q3.873,0,7.376.123t5.4.206v-1.73a11.854,11.854,0,0,1-6.182-1.361q-2.226-1.36-2.226-5.4V535.89a15.058,15.058,0,0,1,.742-4.45,19.01,19.01,0,0,1,2.06-4.493,12.149,12.149,0,0,1,3.215-3.462,7.417,7.417,0,0,1,4.12-1.442,2.744,2.744,0,0,1,1.979.577,7.561,7.561,0,0,0-2.184,2.02,5.037,5.037,0,0,0-.948,3.091,4.213,4.213,0,0,0,1.443,3.378,5.192,5.192,0,0,0,3.5,1.237,4.788,4.788,0,0,0,3.833-1.69,6.071,6.071,0,0,0,1.442-4.08,6.6,6.6,0,0,0-3.42-5.934Z" transform="translate(11.774 5.04)" fill="url(#linear-gradient-3)"/>
    <path id="Path_54" data-name="Path 54" d="M1654.777,524.83c-1.7-3.3-12.969-5.176-16.649-5.176s-14.945,1.878-16.649,5.176-2.555,12-2.555,17.325.853,9.63,2.555,12.9a16.363,16.363,0,0,0,6.842,7.172,22.364,22.364,0,0,0,19.616,0,16.359,16.359,0,0,0,6.841-7.172q2.555-4.9,2.555-12.9C1657.332,536.825,1656.48,528.127,1654.777,524.83Z" transform="translate(16.885 5.04)" fill="url(#linear-gradient-4)"/>
    <path id="Path_55" data-name="Path 55" d="M1670.8,558.549V501.6a29.378,29.378,0,0,1-4.533.865,44.514,44.514,0,0,1-5.192.29q-2.473,0-5.111-.248v1.731q3.463,0,4.7,1.773a9.679,9.679,0,0,1,1.236,5.481v47.061q0,3.463-1.359,4.7t-4.575,1.237v1.73q1.484-.082,4.493-.206t5.975-.123q2.969,0,5.893.123t4.409.206v-1.73q-3.214,0-4.574-1.237T1670.8,558.549Z" transform="translate(22.789 2.161)" fill="url(#linear-gradient-5)"/>
    <path id="Path_56" data-name="Path 56" d="M1686.644,513.944a6.058,6.058,0,0,0,4.286-1.608,5.481,5.481,0,0,0,0-7.994,6.519,6.519,0,0,0-8.572,0,5.478,5.478,0,0,0,0,7.994A6.053,6.053,0,0,0,1686.644,513.944Z" transform="translate(26.721 2.343)" fill="url(#linear-gradient-6)"/>
    <path id="Path_57" data-name="Path 57" d="M1692.122,555.637v-35.77a29.631,29.631,0,0,1-4.491.866,44.509,44.509,0,0,1-5.234.288q-2.473,0-5.111-.247V522.5q3.463,0,4.7,1.772a9.675,9.675,0,0,1,1.237,5.482v25.879q0,3.463-1.36,4.7t-4.575,1.237v1.73q1.484-.082,4.493-.206t5.975-.123q3.047,0,5.976.123t4.327.206v-1.73q-3.216,0-4.574-1.237T1692.122,555.637Z" transform="translate(26.188 5.074)" fill="url(#linear-gradient-7)"/>
    <path id="Path_58" data-name="Path 58" d="M1735.352,518.943a9.509,9.509,0,0,0-5.852,2.143,12.893,12.893,0,0,0-2.769,2.845,11.654,11.654,0,0,0-4.155-2.8,22.533,22.533,0,0,0-15.413,0,11.44,11.44,0,0,0-5.439,4.286,13.046,13.046,0,0,0-1.979,7.46,12.839,12.839,0,0,0,1.979,7.418,11.508,11.508,0,0,0,5.439,4.245,19.527,19.527,0,0,0,4.839,1.174,20.945,20.945,0,0,0-5.746,3.977,8.112,8.112,0,0,0-2.473,5.6,5.34,5.34,0,0,0,1.525,4.08,7.935,7.935,0,0,0,4,1.937,27.334,27.334,0,0,0,5.356.5h5.77q5.6,0,7.5,1.772a5.789,5.789,0,0,1,1.894,4.409,7.559,7.559,0,0,1-2.1,5.522,12.054,12.054,0,0,1-5.44,3.09,25.679,25.679,0,0,1-7.047.948,17.518,17.518,0,0,1-8.9-1.977,6.185,6.185,0,0,1-3.379-5.606,7.137,7.137,0,0,1,.947-3.627,5.527,5.527,0,0,1,2.679-2.39l-.578-1.319a15.336,15.336,0,0,0-6.512,3.133,6.241,6.241,0,0,0-2.307,4.78,5.779,5.779,0,0,0,2.349,4.738,15.726,15.726,0,0,0,6.264,2.762,37.807,37.807,0,0,0,8.531.907,32.848,32.848,0,0,0,12.611-2.1,17.4,17.4,0,0,0,7.541-5.522,12.1,12.1,0,0,0,2.515-7.294,8.716,8.716,0,0,0-1.9-5.853,10.9,10.9,0,0,0-5.027-3.255,22.364,22.364,0,0,0-7.005-1.031h-9.808q-3.793,0-3.791-2.638a4.026,4.026,0,0,1,1.854-3.338,36.955,36.955,0,0,1,3.115-2.036c.131,0,.255.016.387.016a20.635,20.635,0,0,0,7.749-1.36,11.571,11.571,0,0,0,5.358-4.245,12.848,12.848,0,0,0,1.978-7.418,13.055,13.055,0,0,0-1.978-7.46c-.03-.043-.066-.079-.1-.122a12.617,12.617,0,0,1,1.95-2.432,13.206,13.206,0,0,1,3.552-2.217,9.386,9.386,0,0,0-.874,4.112,3.9,3.9,0,0,0,1.279,2.843,3.758,3.758,0,0,0,2.43.907,4.528,4.528,0,0,0,2.844-1.071,4.349,4.349,0,0,0,1.36-3.627,4.681,4.681,0,0,0-1.36-3.585A5.139,5.139,0,0,0,1735.352,518.943Zm-16.072,22.995a4.98,4.98,0,0,1-4.452,2.473,5.032,5.032,0,0,1-4.367-2.473q-1.65-2.471-1.649-9.065t1.649-9.108a5.015,5.015,0,0,1,4.367-2.512,4.963,4.963,0,0,1,4.452,2.512q1.563,2.516,1.565,9.108T1719.28,541.938Z" transform="translate(29.361 4.926)" fill="url(#linear-gradient-8)"/>
    <path id="Path_59" data-name="Path 59" d="M1770.133,552.21a15.348,15.348,0,0,1-3.379,4.657,11.457,11.457,0,0,1-4,2.39,13.593,13.593,0,0,1-4.327.7,9.91,9.91,0,0,1-5.688-1.936,13.538,13.538,0,0,1-4.532-5.811,23.42,23.42,0,0,1-1.732-9.56q0-1.318.083-2.679c.044-.751.09-1.443.136-2.1h24.92q0-9.478-4.122-13.847t-11.374-4.369a17.582,17.582,0,0,0-16.731,10.714A29.8,29.8,0,0,0,1737,542.9a26.661,26.661,0,0,0,2.307,11.538,16.964,16.964,0,0,0,6.594,7.46,19.021,19.021,0,0,0,10.056,2.6,15.909,15.909,0,0,0,7.5-1.689,15.614,15.614,0,0,0,5.274-4.41,20.422,20.422,0,0,0,3.05-5.521ZM1755.793,521.3a4.929,4.929,0,0,1,4.12,2.06,13.832,13.832,0,0,1,2.308,5.481,32.15,32.15,0,0,1,.659,7.46h-16.336c.425-5.1,1.457-8.866,3.107-11.251Q1752.25,521.3,1755.793,521.3Z" transform="translate(35.707 5.04)" fill="url(#linear-gradient-4)"/>
    <g id="Group_13" data-name="Group 13" transform="translate(1553.385 575.705)">
      <path id="Path_60" data-name="Path 60" d="M1574.1,563.809q-.181,1.9-.248,3.685t-.067,2.735q0,1.04.044,1.988t.092,1.628h-1.04a24.537,24.537,0,0,0-1.2-5.334,5.413,5.413,0,0,0-2.147-2.8,7.755,7.755,0,0,0-4.023-.858h-1.944v25.768a8.192,8.192,0,0,0,.339,2.713,1.918,1.918,0,0,0,1.357,1.2,13.566,13.566,0,0,0,2.961.384v.9q-1.266-.09-3.254-.112t-4.07-.023q-2.169,0-4.091.023t-3.1.112v-.9a13.207,13.207,0,0,0,2.939-.384,1.975,1.975,0,0,0,1.355-1.2,7.707,7.707,0,0,0,.362-2.713V564.849h-1.99a7.8,7.8,0,0,0-3.978.858,5.221,5.221,0,0,0-2.17,2.8,25.585,25.585,0,0,0-1.176,5.334h-1.039a15.671,15.671,0,0,0,.112-1.628q.023-.948.023-1.988,0-.951-.068-2.735t-.248-3.685q1.943.045,4.249.089t4.656.046h8.455q2.3,0,4.656-.046T1574.1,563.809Z" transform="translate(-1547.832 -563.627)"/>
      <path id="Path_61" data-name="Path 61" d="M1596.2,563.809q-.181,1.718-.249,3.323t-.067,2.463q0,.861.045,1.629c.029.512.06.933.09,1.265h-1.04a18.4,18.4,0,0,0-.973-4.566,4.379,4.379,0,0,0-1.943-2.373,7.6,7.6,0,0,0-3.594-.7h-3.119a7.33,7.33,0,0,0-2.192.248,1.559,1.559,0,0,0-1.018.995,7.327,7.327,0,0,0-.271,2.328V591.2a7.364,7.364,0,0,0,.271,2.306,1.559,1.559,0,0,0,1.018,1.017,7.325,7.325,0,0,0,2.192.248h2.938a8.7,8.7,0,0,0,4.092-.813,5.216,5.216,0,0,0,2.306-2.668,19.585,19.585,0,0,0,1.2-5.063h1.039q-.134,1.311-.135,3.435,0,.906.067,2.623t.249,3.526q-2.306-.09-5.2-.112t-5.153-.023h-2.668q-1.628,0-3.5.023t-3.8.045q-1.923.023-3.685.067v-.9a8.921,8.921,0,0,0,2.3-.361,1.573,1.573,0,0,0,1.018-1.085,8.99,8.99,0,0,0,.248-2.442V568.6a8.19,8.19,0,0,0-.271-2.464,1.694,1.694,0,0,0-1.04-1.085,7.281,7.281,0,0,0-2.26-.339v-.9q1.763.045,3.685.068l3.8.044q1.875.024,3.5.023h2.668q2.078,0,4.723-.023T1596.2,563.809Zm-7.5,15.461v.9h-8.182v-.9Zm1.311-5.967q-.181,2.577-.159,3.933t.023,2.487q0,1.13.045,2.487t.226,3.933h-1.04a27.93,27.93,0,0,0-.588-2.871,4.547,4.547,0,0,0-1.288-2.238,4.121,4.121,0,0,0-2.872-.859v-.9a3.569,3.569,0,0,0,3.572-2.125,8.421,8.421,0,0,0,.656-1.965q.2-1.017.384-1.877Z" transform="translate(-1543.804 -563.627)"/>
      <path id="Path_62" data-name="Path 62" d="M1610.979,563.652l11.03,28.392a4.766,4.766,0,0,0,1.469,2.261,3.1,3.1,0,0,0,1.559.632v.9c-.722-.06-1.576-.1-2.554-.112s-1.966-.023-2.961-.023q-1.9,0-3.526.023c-1.085.016-1.959.052-2.623.112v-.9q2.306-.089,2.916-.791t-.293-3.006l-8.138-21.971.724-.814-7.5,19.621a13.832,13.832,0,0,0-.973,3.39,3.8,3.8,0,0,0,.226,2.125,2.173,2.173,0,0,0,1.333,1.085,8.342,8.342,0,0,0,2.35.361v.9q-1.355-.09-2.734-.112t-2.6-.023q-1.085,0-1.921.023a14.77,14.77,0,0,0-1.514.112v-.9a4.228,4.228,0,0,0,1.9-1.129,8.726,8.726,0,0,0,1.807-3.075l10.489-27.08h1.537Zm4.747,19.17v.9h-13.472l.452-.9Z" transform="translate(-1540.274 -563.652)"/>
      <path id="Path_63" data-name="Path 63" d="M1645.844,563.809q-.181,1.9-.25,3.685t-.067,2.735q0,1.04.045,1.988c.029.633.06,1.176.09,1.628h-1.04a24.48,24.48,0,0,0-1.2-5.334,5.418,5.418,0,0,0-2.147-2.8,7.755,7.755,0,0,0-4.023-.858h-1.944v25.768a8.188,8.188,0,0,0,.339,2.713,1.916,1.916,0,0,0,1.356,1.2,13.556,13.556,0,0,0,2.961.384v.9q-1.266-.09-3.256-.112t-4.068-.023q-2.169,0-4.092.023t-3.1.112v-.9a13.186,13.186,0,0,0,2.938-.384,1.976,1.976,0,0,0,1.356-1.2,7.73,7.73,0,0,0,.362-2.713V564.849h-1.99a7.8,7.8,0,0,0-3.978.858,5.214,5.214,0,0,0-2.17,2.8,25.575,25.575,0,0,0-1.176,5.334h-1.039a16.009,16.009,0,0,0,.113-1.628q.022-.948.023-1.988,0-.951-.068-2.735t-.249-3.685q1.944.045,4.25.089t4.656.046h8.453q2.306,0,4.657-.046T1645.844,563.809Z" transform="translate(-1536.396 -563.627)"/>
      <path id="Path_64" data-name="Path 64" d="M1667.945,563.809q-.181,1.718-.248,3.323t-.067,2.463q0,.861.044,1.629t.092,1.265h-1.04a18.41,18.41,0,0,0-.973-4.566,4.385,4.385,0,0,0-1.943-2.373,7.6,7.6,0,0,0-3.594-.7H1657.1a7.343,7.343,0,0,0-2.193.248,1.555,1.555,0,0,0-1.017.995,7.335,7.335,0,0,0-.271,2.328V591.2a7.372,7.372,0,0,0,.271,2.306,1.555,1.555,0,0,0,1.017,1.017,7.338,7.338,0,0,0,2.193.248h2.937a8.7,8.7,0,0,0,4.092-.813,5.2,5.2,0,0,0,2.306-2.668,19.534,19.534,0,0,0,1.2-5.063h1.039q-.136,1.311-.134,3.435,0,.906.067,2.623t.248,3.526q-2.3-.09-5.2-.112t-5.153-.023h-2.667q-1.628,0-3.5.023t-3.8.045q-1.922.023-3.685.067v-.9a8.922,8.922,0,0,0,2.306-.361,1.569,1.569,0,0,0,1.017-1.085,8.931,8.931,0,0,0,.249-2.442V568.6a8.191,8.191,0,0,0-.271-2.464,1.7,1.7,0,0,0-1.04-1.085,7.289,7.289,0,0,0-2.261-.339v-.9q1.763.045,3.685.068l3.8.044q1.876.024,3.5.023h2.667q2.08,0,4.724-.023T1667.945,563.809Zm-7.5,15.461v.9h-8.183v-.9Zm1.311-5.967q-.183,2.577-.159,3.933t.023,2.487q0,1.13.045,2.487t.226,3.933h-1.04a27.9,27.9,0,0,0-.588-2.871,4.547,4.547,0,0,0-1.288-2.238,4.12,4.12,0,0,0-2.872-.859v-.9a3.572,3.572,0,0,0,3.572-2.125,8.424,8.424,0,0,0,.655-1.965q.2-1.017.385-1.877Z" transform="translate(-1532.368 -563.627)"/>
      <path id="Path_65" data-name="Path 65" d="M1668.9,563.809q1.04.045,2.691.089t3.276.046q2.17,0,4.138-.046t2.78-.044a17.762,17.762,0,0,1,6.4.995,7.99,7.99,0,0,1,3.8,2.78,6.984,6.984,0,0,1,1.244,4.092,8.692,8.692,0,0,1-.566,2.96,7.569,7.569,0,0,1-1.966,2.894,10.63,10.63,0,0,1-3.8,2.193,18.341,18.341,0,0,1-6.1.859h-4.339v-.9h3.887a8.715,8.715,0,0,0,4.634-1.017,5.04,5.04,0,0,0,2.169-2.713,11.888,11.888,0,0,0,.565-3.775,8.813,8.813,0,0,0-1.536-5.538q-1.539-1.965-5.335-1.965a3.206,3.206,0,0,0-2.554.767,5.442,5.442,0,0,0-.61,3.12v22.423a8.228,8.228,0,0,0,.271,2.442,1.632,1.632,0,0,0,1.04,1.085,8.745,8.745,0,0,0,2.261.361v.9c-.723-.06-1.636-.1-2.736-.112s-2.223-.023-3.368-.023q-1.9,0-3.548.023c-1.1.016-2,.052-2.691.112v-.9a8.923,8.923,0,0,0,2.306-.361,1.569,1.569,0,0,0,1.017-1.085,8.931,8.931,0,0,0,.249-2.442V568.6a8.89,8.89,0,0,0-.249-2.464,1.63,1.63,0,0,0-1.039-1.085,7.541,7.541,0,0,0-2.284-.339Zm7.641,16.048q2.306.09,3.708.2t2.35.2q.949.09,1.763.226a9.423,9.423,0,0,1,4.949,1.807,7.3,7.3,0,0,1,2.147,4.16l1.132,4.611a9.939,9.939,0,0,0,.881,2.758,1.546,1.546,0,0,0,1.424.813,2.044,2.044,0,0,0,1.2-.429,7.035,7.035,0,0,0,1.017-1.062l.633.5a8.108,8.108,0,0,1-2.171,2.1,5.7,5.7,0,0,1-3.028.7,5.435,5.435,0,0,1-3.323-1.017,6.181,6.181,0,0,1-1.966-3.865l-.9-4.521a27.439,27.439,0,0,0-.9-3.368,5.408,5.408,0,0,0-1.378-2.238,3.639,3.639,0,0,0-2.554-.814h-4.883Z" transform="translate(-1528.533 -563.627)"/>
    </g>
    <g id="Group_14" data-name="Group 14" transform="translate(1593.6 488.039)">
      <path id="Path_66" data-name="Path 66" d="M1594.285,488.039q7.638,0,11.353,3.7t3.716,10.589a16.316,16.316,0,0,1-1.816,7.865,12.682,12.682,0,0,1-5.265,5.223,17.417,17.417,0,0,1-8.361,1.857q-.619,0-1.672-.042t-2.167-.061q-1.115-.021-2.023-.021-1.569,0-3.076.021t-2.457.1v-.825a8.182,8.182,0,0,0,2.107-.332,1.43,1.43,0,0,0,.929-.99,8.188,8.188,0,0,0,.227-2.229V492.415a8.162,8.162,0,0,0-.227-2.249,1.489,1.489,0,0,0-.95-.991,6.893,6.893,0,0,0-2.086-.31v-.826q.95.042,2.457.1t2.994.021q1.487-.04,3.323-.083T1594.285,488.039Zm-.7.743a3.2,3.2,0,0,0-2.478.7,4.815,4.815,0,0,0-.578,2.849v20.642a4.674,4.674,0,0,0,.6,2.849,3.274,3.274,0,0,0,2.5.7,11.107,11.107,0,0,0,6.482-1.631,8.683,8.683,0,0,0,3.261-4.767,26.647,26.647,0,0,0,.95-7.638,24.147,24.147,0,0,0-1.032-7.659,8.41,8.41,0,0,0-3.366-4.54A11.568,11.568,0,0,0,1593.583,488.782Z" transform="translate(-1582.518 -488.039)"/>
      <path id="Path_67" data-name="Path 67" d="M1629.681,488.039q-.165,1.569-.226,3.034t-.062,2.25q0,.784.042,1.486t.082,1.155h-.949a16.883,16.883,0,0,0-.888-4.169,4,4,0,0,0-1.775-2.167,6.941,6.941,0,0,0-3.282-.64h-2.849a6.775,6.775,0,0,0-2,.226,1.422,1.422,0,0,0-.929.909,6.717,6.717,0,0,0-.247,2.126v20.807a6.744,6.744,0,0,0,.247,2.107,1.421,1.421,0,0,0,.929.929,6.691,6.691,0,0,0,2,.227h2.684a7.933,7.933,0,0,0,3.736-.743,4.756,4.756,0,0,0,2.105-2.436,17.833,17.833,0,0,0,1.094-4.624h.949q-.123,1.2-.124,3.137,0,.826.063,2.394t.226,3.221q-2.1-.083-4.747-.1t-4.707-.021h-2.436q-1.485,0-3.2.021l-3.469.041q-1.755.021-3.365.063v-.825a8.182,8.182,0,0,0,2.107-.332,1.43,1.43,0,0,0,.929-.99,8.192,8.192,0,0,0,.226-2.229V492.415a7.509,7.509,0,0,0-.247-2.249,1.548,1.548,0,0,0-.951-.991,6.656,6.656,0,0,0-2.064-.31v-.826q1.612.042,3.365.061l3.469.042q1.711.021,3.2.021h2.436q1.9,0,4.314-.021T1629.681,488.039Zm-6.853,14.119v.825h-7.472v-.825Zm1.2-5.45q-.165,2.353-.145,3.592t.021,2.271q0,1.033.042,2.27t.205,3.592h-.948a25.263,25.263,0,0,0-.537-2.62,4.147,4.147,0,0,0-1.177-2.044,3.758,3.758,0,0,0-2.621-.785v-.825a3.261,3.261,0,0,0,3.261-1.941,7.618,7.618,0,0,0,.6-1.8q.186-.929.351-1.714Z" transform="translate(-1578.363 -488.039)"/>
      <path id="Path_68" data-name="Path 68" d="M1654.15,488.039q-.166,1.734-.227,3.365t-.062,2.5c0,.634.013,1.238.041,1.817s.055,1.074.082,1.486h-.95a22.357,22.357,0,0,0-1.093-4.872,4.95,4.95,0,0,0-1.962-2.56,7.092,7.092,0,0,0-3.674-.784h-1.775v23.532a7.474,7.474,0,0,0,.31,2.477,1.751,1.751,0,0,0,1.239,1.094,12.393,12.393,0,0,0,2.7.351v.825q-1.157-.083-2.973-.1t-3.716-.021q-1.982,0-3.737.021t-2.827.1v-.825a12.087,12.087,0,0,0,2.683-.351,1.808,1.808,0,0,0,1.238-1.094,7.038,7.038,0,0,0,.33-2.477V488.989h-1.817a7.127,7.127,0,0,0-3.632.784,4.77,4.77,0,0,0-1.983,2.56,23.384,23.384,0,0,0-1.073,4.872h-.951a14.135,14.135,0,0,0,.1-1.486c.014-.579.021-1.183.021-1.817q0-.866-.062-2.5t-.226-3.365q1.774.042,3.881.082t4.251.042h7.721q2.1,0,4.253-.042T1654.15,488.039Z" transform="translate(-1574.923 -488.039)"/>
    </g>
    <path id="Path_69" data-name="Path 69" d="M1624.811,534.657a4.844,4.844,0,0,1,4.936-4.492c4.6,0,4.924,3.506,4.924,3.506s-2.356-.191-3.944-.191A17.777,17.777,0,0,0,1624.811,534.657Z" transform="translate(17.823 6.715)" fill="#fff"/>
    <path id="Path_70" data-name="Path 70" d="M1647.519,534.657a4.843,4.843,0,0,0-4.934-4.492c-4.6,0-4.925,3.506-4.925,3.506s2.356-.191,3.944-.191A17.777,17.777,0,0,1,1647.519,534.657Z" transform="translate(19.871 6.715)" fill="#fff"/>
    <path id="Path_71" data-name="Path 71" d="M1636.682,541.976c-3.215,0-6.7.631-8.69,1.89,0,4.054,2.609,9.5,8.69,9.5s8.69-5.449,8.69-9.5C1643.384,542.607,1639.9,541.976,1636.682,541.976Z" transform="translate(18.33 8.598)" fill="#fff"/>
  </g>
</svg>
